<?xml version="1.0" standalone="no"?>
<!DOCTYPE svg PUBLIC "-//W3C//DTD SVG 20010904//EN"
 "http://www.w3.org/TR/2001/REC-SVG-20010904/DTD/svg10.dtd">
<svg version="1.0" xmlns="http://www.w3.org/2000/svg"
 width="1200.000000pt" height="1200.000000pt" viewBox="0 0 1200.000000 1200.000000"
 preserveAspectRatio="xMidYMid meet">
<metadata>
Created by potrace 1.15, written by Peter Selinger 2001-2017
</metadata>
<g transform="translate(0.000000,1200.000000) scale(0.100000,-0.100000)"
fill="#000000" stroke="none">
<path d="M4212 11858 c-7 -7 -12 -20 -12 -31 0 -20 -54 -123 -101 -192 -41
-61 -184 -352 -240 -488 -57 -137 -113 -345 -128 -469 -5 -46 -13 -156 -16
-244 -7 -189 -15 -225 -95 -421 -97 -235 -105 -273 -105 -504 l0 -195 -46 -95
c-53 -107 -61 -129 -83 -219 -37 -155 -46 -294 -27 -442 11 -82 0 -137 -39
-198 -37 -58 -84 -178 -109 -277 -24 -96 -43 -276 -35 -340 9 -77 52 -249 94
-378 21 -66 46 -156 54 -200 46 -243 92 -430 132 -535 78 -202 86 -223 130
-326 23 -55 52 -129 64 -164 12 -35 37 -93 56 -129 19 -35 34 -68 34 -74 0
-18 132 -302 173 -372 74 -126 105 -154 169 -155 45 0 68 27 68 82 0 44 -35
184 -79 314 -17 50 -38 141 -46 203 -20 138 -19 146 76 614 84 412 96 491 94
612 -6 316 -4 631 4 700 4 44 20 150 35 235 30 171 30 162 6 644 -11 242 -11
282 4 410 18 149 38 259 61 341 34 117 58 562 36 660 -5 22 -12 74 -16 115 -4
41 -11 83 -16 92 -5 9 -9 31 -9 48 0 17 -6 46 -14 64 -8 19 -20 92 -28 162
-23 225 -13 850 16 1021 19 105 12 143 -27 143 -13 0 -28 -5 -35 -12z"/>
<path d="M8450 10713 c0 -10 9 -52 20 -93 12 -47 20 -109 20 -165 1 -156 14
-218 75 -342 54 -113 109 -202 171 -279 38 -46 88 -187 98 -279 26 -213 134
-428 306 -605 l83 -84 -7 -116 c-9 -153 -35 -430 -43 -455 -3 -11 -7 -29 -9
-40 -4 -32 -49 -225 -99 -420 -47 -184 -62 -248 -115 -485 -16 -74 -41 -163
-55 -197 -14 -35 -25 -69 -25 -77 0 -8 -3 -17 -7 -19 -5 -3 -9 24 -10 58 -2
84 -38 286 -62 359 -33 93 -103 234 -173 347 -90 142 -109 184 -166 350 -64
185 -81 229 -147 369 -142 305 -177 389 -220 531 -157 517 -199 637 -249 714
-18 28 -53 85 -76 127 -45 81 -144 209 -238 309 -42 45 -62 59 -74 54 -30 -12
-22 -76 21 -178 22 -50 63 -157 90 -236 47 -134 51 -151 51 -238 0 -64 -10
-146 -31 -256 -36 -185 -50 -445 -30 -552 13 -70 73 -196 165 -345 114 -184
162 -339 250 -810 27 -140 49 -204 96 -282 55 -90 152 -204 209 -244 113 -81
136 -101 168 -142 61 -80 123 -339 123 -515 0 -86 -1 -89 -54 -195 -185 -369
-397 -707 -668 -1064 -248 -327 -497 -603 -776 -860 -160 -148 -182 -168 -427
-378 -77 -66 -172 -148 -211 -182 -39 -35 -111 -93 -160 -131 -49 -37 -114
-86 -144 -110 -30 -23 -80 -60 -111 -82 -134 -94 -370 -268 -446 -328 -72 -57
-90 -67 -140 -74 -76 -11 -180 -8 -240 6 -26 6 -70 13 -98 16 -144 12 -249 65
-366 185 -97 99 -312 344 -362 413 -44 59 -138 241 -172 332 -29 76 -64 233
-79 355 -23 188 5 493 49 530 31 26 9 80 -33 80 -50 0 -149 -124 -198 -248
-55 -137 -64 -189 -64 -367 0 -133 4 -181 24 -275 31 -145 43 -179 113 -311
78 -148 171 -270 331 -432 203 -206 278 -266 455 -359 185 -99 314 -158 346
-158 20 0 22 -2 10 -16 -7 -8 -52 -43 -101 -77 -204 -142 -443 -324 -523 -397
-27 -25 -75 -65 -105 -88 -139 -105 -241 -219 -379 -424 -93 -138 -164 -312
-190 -463 -6 -33 -15 -87 -21 -120 -15 -87 -12 -276 5 -392 50 -335 261 -586
578 -689 101 -32 116 -34 235 -33 219 1 316 34 413 136 48 51 51 57 46 95 -7
53 -25 69 -81 75 -39 5 -51 1 -80 -21 -51 -39 -134 -37 -199 4 l-47 30 0 70
c0 109 36 163 145 217 61 30 209 71 315 87 52 8 178 29 280 46 102 17 230 37
285 45 55 8 143 21 195 29 52 8 129 20 170 26 408 63 596 104 907 199 289 89
603 227 879 387 102 59 219 125 311 175 73 40 191 111 303 184 52 34 106 68
120 75 57 30 383 252 457 311 44 35 144 113 221 172 157 121 388 338 496 466
117 138 192 231 258 320 35 46 93 121 130 167 37 46 72 102 79 123 24 80 -17
161 -82 161 -28 0 -73 -41 -423 -387 -246 -244 -433 -420 -503 -475 -204 -159
-750 -512 -1273 -823 -124 -74 -353 -180 -645 -300 -171 -69 -344 -141 -385
-160 -103 -47 -111 -49 -320 -110 -310 -91 -384 -113 -415 -125 -16 -6 -77
-20 -135 -30 -58 -11 -134 -26 -170 -33 -82 -18 -208 -39 -425 -72 -93 -14
-204 -32 -245 -40 -41 -8 -97 -17 -125 -21 -88 -11 -228 -44 -275 -65 -25 -11
-73 -31 -108 -44 -122 -47 -214 -132 -288 -265 -45 -82 -47 -88 -48 -170 -1
-66 4 -100 23 -153 13 -37 28 -70 32 -73 5 -3 9 -10 9 -15 0 -6 -33 7 -72 28
-88 46 -176 132 -214 209 -26 54 -27 58 -21 192 7 149 22 213 78 323 65 129
316 320 536 408 26 10 88 35 136 55 49 19 154 54 235 77 81 22 194 55 252 71
58 17 170 47 250 68 147 38 615 178 770 230 81 27 502 210 877 380 68 31 383
210 453 257 25 17 117 78 205 136 88 58 214 144 280 191 116 83 310 215 615
419 541 361 705 492 1060 847 296 296 407 420 421 473 13 50 5 108 -18 124 -9
7 -31 13 -49 13 -57 0 -251 -152 -529 -415 -93 -88 -188 -174 -210 -190 -22
-16 -73 -60 -115 -98 -41 -38 -131 -110 -198 -161 -68 -50 -156 -117 -195
-149 -39 -33 -123 -98 -187 -145 -63 -48 -164 -125 -225 -173 -148 -116 -304
-227 -439 -312 -61 -39 -132 -86 -158 -104 -52 -37 -302 -176 -337 -188 -12
-4 -131 -59 -264 -122 -287 -137 -463 -214 -572 -254 -44 -15 -174 -69 -290
-120 -313 -136 -365 -156 -470 -184 -52 -14 -131 -39 -175 -55 -45 -16 -118
-39 -163 -51 -45 -11 -147 -42 -227 -68 -80 -27 -226 -74 -325 -106 -233 -75
-504 -185 -575 -233 -30 -21 -82 -54 -114 -72 -33 -19 -83 -54 -111 -79 -29
-25 -81 -71 -116 -101 l-64 -55 24 40 c55 92 151 233 187 277 292 348 445 493
733 689 64 43 163 113 221 155 58 42 146 100 195 130 50 29 160 103 245 163
85 61 234 164 330 230 96 66 199 140 229 166 67 57 175 138 263 197 82 54 206
156 268 219 40 41 97 89 312 264 34 28 101 86 148 130 57 54 99 84 125 92 58
18 313 43 432 43 334 0 641 58 869 165 85 39 238 141 359 239 108 87 281 267
368 381 110 147 124 160 312 287 99 68 179 131 235 188 156 157 292 369 379
591 108 277 274 503 501 684 76 61 90 80 90 122 -1 37 -43 68 -90 67 -19 -1
-84 -15 -145 -33 -120 -34 -428 -178 -538 -253 -62 -41 -267 -243 -507 -497
-69 -73 -181 -181 -250 -239 -69 -59 -163 -140 -210 -182 -196 -174 -399 -325
-545 -405 -38 -21 -101 -57 -140 -81 -38 -23 -152 -85 -253 -137 -204 -106
-197 -109 -92 38 145 203 379 603 532 910 96 191 190 391 211 451 8 21 39 100
69 174 30 74 61 160 68 190 21 88 88 291 102 308 7 8 37 26 67 39 112 50 219
136 306 248 35 44 128 143 207 220 79 77 156 156 171 176 52 70 200 367 258
518 33 85 71 175 86 200 49 86 93 181 93 205 0 13 -7 29 -15 36 -22 18 -54 -6
-123 -97 -33 -43 -97 -109 -143 -148 -46 -38 -122 -106 -169 -151 -47 -44
-105 -96 -130 -115 -125 -94 -258 -238 -485 -524 -16 -20 -16 -20 -11 0 3 11
10 54 16 95 5 41 16 125 25 185 8 61 17 184 20 275 3 91 10 205 16 255 10 87
11 91 47 119 166 132 304 367 359 611 31 138 46 171 119 271 109 146 158 297
155 475 -1 58 -8 135 -15 170 -43 200 -59 263 -89 348 -35 102 -56 126 -83
100 -33 -33 -189 -493 -209 -614 -25 -158 -56 -229 -151 -351 -70 -91 -132
-196 -146 -252 -35 -138 -39 -172 -35 -287 l4 -120 -20 65 c-10 36 -27 92 -37
125 -10 33 -25 98 -35 145 -23 118 -19 109 -91 206 -79 106 -100 146 -126 238
-10 39 -26 82 -34 94 -9 13 -46 90 -83 172 -111 242 -282 476 -425 581 -45 34
-56 36 -56 12z"/>
<path d="M4697 10153 c-18 -18 -5 -132 51 -438 22 -119 51 -301 58 -362 2 -21
6 -47 9 -59 2 -12 9 -93 15 -182 9 -142 8 -176 -10 -296 -22 -153 -52 -240
-125 -361 -93 -152 -90 -139 -91 -410 -1 -269 -6 -298 -69 -396 -38 -58 -65
-134 -89 -253 -21 -98 -20 -165 4 -311 24 -146 25 -229 4 -303 -25 -92 -36
-114 -82 -171 -73 -92 -105 -168 -138 -341 -52 -263 -72 -407 -76 -542 -2 -63
0 -80 17 -98 29 -32 74 -24 100 18 43 70 109 150 217 261 165 169 219 235 281
341 73 125 112 226 147 379 15 69 36 160 45 201 10 41 46 139 82 216 92 205
114 300 113 492 0 84 -3 159 -6 167 -13 32 18 146 52 196 37 53 68 138 110
305 25 102 26 118 20 249 -14 297 -37 409 -152 752 -82 242 -173 451 -265 605
-40 66 -92 166 -117 222 -25 55 -52 107 -60 114 -17 13 -35 16 -45 5z"/>
<path d="M1784 9485 c-5 -18 11 -56 61 -152 37 -70 80 -146 95 -168 110 -160
182 -410 200 -692 16 -267 39 -517 54 -593 8 -41 13 -77 10 -81 -13 -21 62
-260 118 -375 19 -40 40 -98 46 -130 7 -33 20 -105 31 -161 29 -153 76 -247
188 -377 43 -51 92 -142 123 -231 36 -103 99 -216 254 -450 151 -229 490 -530
711 -630 94 -43 219 -85 253 -85 31 0 52 16 52 38 0 8 -64 81 -142 161 -79 81
-158 172 -176 203 -57 95 -191 396 -237 528 -66 193 -134 360 -170 415 -17 28
-43 68 -57 90 -45 71 -76 140 -83 181 -22 144 -51 262 -106 431 -40 125 -84
219 -159 337 -66 105 -125 224 -154 316 -21 63 -47 130 -86 215 -14 33 -39 89
-55 125 -16 36 -41 83 -56 105 -14 22 -43 74 -64 115 -51 104 -138 253 -212
363 -34 50 -91 139 -127 197 -36 58 -87 133 -113 167 -123 159 -126 162 -160
162 -27 1 -34 -4 -39 -24z"/>
<path d="M6175 8326 c-9 -14 -25 -69 -36 -123 -28 -135 -49 -193 -135 -375
-41 -86 -74 -165 -74 -175 0 -28 -57 -143 -100 -199 -21 -28 -93 -113 -160
-190 -67 -76 -159 -186 -204 -243 -44 -58 -139 -166 -210 -240 -128 -135 -168
-190 -329 -451 -43 -69 -100 -156 -128 -195 -27 -38 -74 -106 -104 -150 -65
-99 -369 -423 -457 -488 -31 -23 -38 -34 -38 -62 0 -47 20 -55 136 -55 119 0
283 34 334 70 14 9 54 32 90 51 63 33 131 92 340 293 58 56 156 144 218 196
157 132 244 239 327 405 55 110 85 156 177 267 60 73 127 162 148 198 50 84
127 281 141 356 11 61 27 118 53 190 8 22 33 135 55 250 43 228 51 349 37 539
-7 90 -12 114 -29 133 -26 28 -33 28 -52 -2z"/>
<path d="M1017 7602 c-23 -25 -21 -57 8 -149 13 -43 29 -103 36 -133 12 -57
70 -200 135 -330 29 -60 60 -99 158 -198 66 -68 148 -142 181 -165 109 -74
133 -97 162 -160 118 -255 249 -451 408 -612 101 -102 295 -260 377 -306 35
-20 106 -61 158 -91 153 -89 197 -108 293 -129 51 -11 104 -28 118 -38 40 -30
222 -110 270 -120 24 -5 70 -15 101 -22 45 -10 94 -11 236 -2 160 10 191 15
278 45 89 30 99 36 102 59 3 23 -3 29 -46 47 -27 12 -83 27 -123 33 -89 14
-406 117 -492 161 -206 103 -457 325 -601 532 -67 96 -257 302 -383 414 -137
123 -332 258 -477 332 -208 105 -276 145 -353 207 -69 56 -285 286 -334 354
-12 19 -40 54 -61 80 -21 25 -50 74 -64 110 -25 61 -49 99 -64 99 -4 0 -14 -8
-23 -18z"/>
<path d="M6513 6448 c-21 -18 -63 -54 -92 -81 -30 -27 -65 -56 -77 -63 -27
-18 -223 -88 -322 -115 -41 -11 -97 -31 -125 -46 -29 -14 -92 -41 -141 -59
-107 -40 -168 -80 -256 -170 -53 -53 -85 -75 -169 -115 -92 -44 -281 -162
-336 -208 -41 -36 -224 -141 -311 -179 -97 -43 -148 -55 -365 -81 -114 -15
-145 -22 -156 -37 -18 -25 -13 -43 19 -67 23 -17 41 -19 145 -18 65 0 141 -3
168 -8 28 -5 93 -17 145 -26 118 -22 380 -16 474 10 118 33 413 167 506 230
30 20 67 43 83 51 15 8 58 40 95 72 99 84 163 135 202 162 19 14 115 102 214
197 189 181 220 221 324 414 54 99 65 152 36 163 -22 8 -19 9 -61 -26z"/>
<path d="M1352 5344 c-15 -10 -22 -25 -22 -49 0 -27 12 -48 60 -104 34 -38 87
-87 118 -109 31 -21 80 -55 109 -74 68 -47 178 -88 343 -127 74 -18 164 -45
200 -61 99 -43 217 -79 295 -91 39 -5 102 -15 140 -22 39 -7 138 -12 220 -11
l150 0 130 47 c210 75 538 209 668 274 40 20 47 28 47 52 0 16 -6 31 -13 34
-15 6 -105 -8 -151 -22 -66 -21 -243 -31 -562 -32 -181 -1 -340 2 -352 5 -92
29 -322 58 -567 72 l-270 14 -150 47 c-167 51 -191 61 -288 127 -38 25 -72 46
-76 46 -3 0 -17 -7 -29 -16z"/>
<path d="M5860 5201 c-25 -4 -79 -23 -120 -43 -41 -20 -111 -47 -154 -58 -80
-22 -122 -23 -376 -4 -115 8 -618 27 -680 25 -62 -2 -110 8 -224 44 -59 18
-137 20 -154 3 -7 -7 -12 -26 -12 -44 0 -41 28 -65 175 -149 68 -40 152 -78
220 -100 61 -20 151 -52 200 -70 154 -57 235 -69 430 -62 94 4 196 11 228 17
142 27 455 186 532 271 33 37 65 94 65 117 0 16 -52 62 -69 61 -9 -1 -36 -5
-61 -8z"/>
<path d="M3942 5115 c-38 -22 -91 -65 -221 -181 -72 -64 -237 -185 -307 -226
-92 -52 -145 -93 -179 -137 -167 -217 -211 -264 -325 -348 -63 -47 -138 -99
-167 -115 -60 -34 -76 -51 -71 -74 6 -30 34 -40 70 -25 18 7 94 31 168 53 325
95 404 126 518 203 50 34 343 344 385 408 89 134 237 410 237 441 0 15 -21 26
-48 26 -9 0 -36 -11 -60 -25z"/>
</g>
</svg>
